<?xml version="1.0" encoding="UTF-8"?>
<svg width="16px" height="16px" viewBox="0 0 16 16" version="1.1" xmlns="http://www.w3.org/2000/svg" xmlns:xlink="http://www.w3.org/1999/xlink">
    <!-- Generator: Sketch 49.3 (51167) - http://www.bohemiancoding.com/sketch -->
    <title>login_icon_close</title>
    <desc>Created with Sketch.</desc>
    <defs></defs>
    <g id="Page-1" stroke="none" stroke-width="1" fill="none" fill-rule="evenodd">
        <g id="2-手机号输入正确" transform="translate(-332.000000, -239.000000)">
            <g id="手机号输入框" transform="translate(19.000000, 222.000000)">
                <g id="login_icon_close" transform="translate(306.000000, 10.000000)">
                    <rect id="Rectangle-5" fill-opacity="0" fill="#FFFFFF" x="0" y="0" width="30" height="30"></rect>
                    <g id="Group-2" transform="translate(7.000000, 7.000000)">
                        <circle id="Oval-5" fill="#DFDFDF" cx="8" cy="8" r="8"></circle>
                        <path d="M9.16941738,8.10875721 L11.9978445,10.9371843 C12.2907377,11.2300776 12.2907377,11.7049513 11.9978445,11.9978445 C11.7049513,12.2907377 11.2300776,12.2907377 10.9371843,11.9978445 L8.10875721,9.16941738 L5.28033009,11.9978445 C4.98743687,12.2907377 4.51256313,12.2907377 4.21966991,11.9978445 C3.9267767,11.7049513 3.9267767,11.2300776 4.21966991,10.9371843 L7.04809704,8.10875721 L4.21966991,5.28033009 C3.9267767,4.98743687 3.9267767,4.51256313 4.21966991,4.21966991 C4.51256313,3.9267767 4.98743687,3.9267767 5.28033009,4.21966991 L8.10875721,7.04809704 L10.9371843,4.21966991 C11.2300776,3.9267767 11.7049513,3.9267767 11.9978445,4.21966991 C12.2907377,4.51256313 12.2907377,4.98743687 11.9978445,5.28033009 L9.16941738,8.10875721 Z" id="search_btn_clear" fill="#FFFFFF"></path>
                    </g>
                </g>
            </g>
        </g>
    </g>
</svg>